# xmcd
#
# Track frame offsets: 
#        150
#        89744
#        96806
#        122562
#        132038
#        157161
#        162875
#        189863
#
# Disc length: 2600 seconds
#
# Revision: 0
# Processed by: cddbd v1.5.2PL0 Copyright (c) Steve Scherf et al.
# Submitted via: ExactAudioCopy v0.99pb4
#
DISCID=610a2608
DTITLE=Teddy Pendergrass - Live - Coast to Coast [Disc 2]
DYEAR=1979
DGENRE=Soul
TTITLE0=RAP-Come go with me-Close the door-Turn off the lights-Do me
TTITLE1=Interview with Mimi Brown - Part 1
TTITLE2=Where did all the lovin' go
TTITLE3=Interview with Mimi Brown - Part 2
TTITLE4=It's you I love
TTITLE5=Interview with Mimi Brown - Part 3
TTITLE6=Shout and scream
TTITLE7=Interview with Mimi Brown - Part 4
EXTD=
EXTT0=
EXTT1=
EXTT2=
EXTT3=
EXTT4=
EXTT5=
EXTT6=
EXTT7=
PLAYORDER=
